<svg width="10" height="10" viewBox="0 0 10 10" fill="none" xmlns="http://www.w3.org/2000/svg">
<path fill-rule="evenodd" clip-rule="evenodd" d="M0.646446 8.64644C0.451184 8.84171 0.451184 9.15829 0.646446 9.35355C0.841708 9.54881 1.15829 9.54881 1.35355 9.35355L5 5.70711L8.64645 9.35355C8.84171 9.54881 9.15829 9.54881 9.35355 9.35355C9.54881 9.15829 9.54881 8.84171 9.35355 8.64644L5.70711 5L9.35355 1.35355C9.54881 1.15829 9.54881 0.841707 9.35355 0.646444C9.15829 0.451182 8.84171 0.451182 8.64645 0.646444L5 4.29289L1.35355 0.646445C1.15829 0.451183 0.841708 0.451183 0.646446 0.646445C0.451184 0.841707 0.451184 1.15829 0.646446 1.35355L4.29289 5L0.646446 8.64644Z" fill="white"/>
</svg>
