<svg width="11" height="10" viewBox="0 0 11 10" fill="none" xmlns="http://www.w3.org/2000/svg">
<path fill-rule="evenodd" clip-rule="evenodd" d="M6 1C6 0.723858 5.77614 0.5 5.5 0.5C5.22386 0.5 5 0.723858 5 1V6.79289L3.35355 5.14645C3.15829 4.95118 2.84171 4.95118 2.64645 5.14645C2.45118 5.34171 2.45118 5.65829 2.64645 5.85355L5.14645 8.35355C5.24399 8.4511 5.37181 8.49991 5.49965 8.5H1.5V7C1.5 6.72386 1.27614 6.5 1 6.5C0.723858 6.5 0.5 6.72386 0.5 7V9C0.5 9.27614 0.723858 9.5 1 9.5H10C10.2761 9.5 10.5 9.27614 10.5 9V7C10.5 6.72386 10.2761 6.5 10 6.5C9.72386 6.5 9.5 6.72386 9.5 7V8.5H5.50035C5.62819 8.49991 5.75601 8.4511 5.85355 8.35355L8.35355 5.85355C8.54882 5.65829 8.54882 5.34171 8.35355 5.14645C8.15829 4.95118 7.84171 4.95118 7.64645 5.14645L6 6.79289V1Z" fill="white"/>
</svg>
