<svg width="11" height="11" viewBox="0 0 11 11" fill="none" xmlns="http://www.w3.org/2000/svg">
<path fill-rule="evenodd" clip-rule="evenodd" d="M3.62469 1.23258L4.53806 0.319206C4.65464 0.202634 4.84364 0.202634 4.96021 0.319206L7.86246 3.22145C7.97903 3.33803 7.97903 3.52703 7.86246 3.6436C7.74589 3.76017 7.55688 3.76017 7.44031 3.6436L4.74914 0.952424L4.06315 1.63841L8.60125 6.17651L8.65398 6.22924L8.86505 6.44031L8.8602 6.44516C9.30032 6.92044 9.63132 7.38614 9.90731 7.96193C10.2281 8.63127 10.4689 9.43781 10.7304 10.5581C10.7337 10.5685 10.7361 10.5791 10.7378 10.5898L10.7388 10.5942L10.7385 10.5943C10.7477 10.6613 10.7265 10.7316 10.675 10.7831C10.6235 10.8346 10.5531 10.8558 10.4861 10.8466L10.486 10.847L10.4817 10.846C10.471 10.8443 10.4604 10.8418 10.4499 10.8386C9.32965 10.577 8.52313 10.3363 7.8538 10.0154C7.27801 9.73946 6.81231 9.40845 6.33703 8.96833L6.33218 8.97318L6.12111 8.76211L6.06838 8.70939L1.37197 4.01298L1.3192 3.96021L1.1609 3.80191L1.17005 3.79276C0.912322 3.46739 0.765708 3.06765 0.757316 2.65646C0.747421 2.17156 0.930557 1.71045 1.26644 1.37457C1.60232 1.03869 2.06343 0.855554 2.54833 0.86545C2.93461 0.873334 3.31078 1.0032 3.62469 1.23258ZM9.8233 9.43968C9.6808 8.96026 9.53506 8.56651 9.36896 8.21998C9.12668 7.71453 8.83717 7.30151 8.43772 6.86764L6.75951 8.54585C7.19338 8.94531 7.60639 9.23481 8.11184 9.47709C8.45838 9.64319 8.85213 9.78894 9.33155 9.93143L9.8233 9.43968ZM10.005 10.1022L9.99411 10.1132C9.99899 10.1144 10.0039 10.1156 10.0088 10.1169C10.0075 10.112 10.0063 10.1071 10.005 10.1022ZM1.56354 3.39926C1.41102 3.18475 1.3248 2.92969 1.31946 2.66793C1.3126 2.33212 1.43943 2.01279 1.67204 1.78018C1.90465 1.54757 2.22399 1.42074 2.5598 1.42759C2.82156 1.43293 3.07661 1.51916 3.29113 1.67168L1.56354 3.39926ZM6.33218 8.12889L2.00519 3.8019L3.69377 2.11332L8.02076 6.44031L6.33218 8.12889Z" fill="white"/>
</svg>
