<svg width="10" height="10" viewBox="0 0 10 10" fill="none" xmlns="http://www.w3.org/2000/svg">
<path fill-rule="evenodd" clip-rule="evenodd" d="M4.33333 0L4.15164 1.09014C3.7055 1.18649 3.28706 1.35726 2.90995 1.58881L1.97698 0.966832L0.966825 1.97698L1.58881 2.90995C1.35726 3.28706 1.18649 3.7055 1.09014 4.15164L0 4.33333V5.66667L1.09014 5.84836C1.18297 6.27819 1.34488 6.68232 1.56367 7.04854L0.966825 7.9438L1.97698 8.95395L2.84869 8.37281C3.24155 8.62391 3.6812 8.80826 4.15164 8.90986L4.33333 10H5.66667L5.84836 8.90986C6.30262 8.81176 6.72817 8.6365 7.1106 8.39849L7.9438 8.95395L8.95395 7.9438L8.39849 7.1106C8.6365 6.72817 8.81176 6.30262 8.90986 5.84836L10 5.66667V4.33333L8.90986 4.15164C8.80826 3.6812 8.62392 3.24155 8.37281 2.84869L8.95395 1.97698L7.9438 0.966833L7.04854 1.56367C6.68232 1.34488 6.27819 1.18297 5.84836 1.09014L5.66667 0H4.33333ZM5 7.3C6.27026 7.3 7.3 6.27026 7.3 5C7.3 3.72975 6.27026 2.7 5 2.7C3.72975 2.7 2.7 3.72975 2.7 5C2.7 6.27026 3.72975 7.3 5 7.3Z" fill="white"/>
</svg>
