<svg width="14" height="10" viewBox="0 0 14 10" fill="none" xmlns="http://www.w3.org/2000/svg">
<path fill-rule="evenodd" clip-rule="evenodd" d="M0.5 0.6C0.5 0.544772 0.544772 0.5 0.6 0.5H1H11H11.4C11.4552 0.5 11.5 0.544772 11.5 0.6V1V6.4C11.5 6.45523 11.5448 6.5 11.6 6.5H13.9C13.9552 6.5 14 6.54477 14 6.6V7.4C14 7.45523 13.9552 7.5 13.9 7.5H11.6C11.5448 7.5 11.5 7.54477 11.5 7.6V9.9C11.5 9.95523 11.4552 10 11.4 10H10.6C10.5448 10 10.5 9.95523 10.5 9.9V7.6C10.5 7.54477 10.4552 7.5 10.4 7.5H1H0.6C0.544772 7.5 0.5 7.45523 0.5 7.4V7V1V0.6ZM1.6 1.5C1.54477 1.5 1.5 1.54477 1.5 1.6V6.4C1.5 6.45523 1.54477 6.5 1.6 6.5H10.4C10.4552 6.5 10.5 6.45523 10.5 6.4V1.6C10.5 1.54477 10.4552 1.5 10.4 1.5H1.6Z" fill="white"/>
</svg>
