<svg width="14" height="10" viewBox="0 0 14 10" fill="none" xmlns="http://www.w3.org/2000/svg">
<path fill-rule="evenodd" clip-rule="evenodd" d="M3.4 0C3.45523 0 3.5 0.0447714 3.5 0.0999999V2.4C3.5 2.45523 3.54477 2.5 3.6 2.5H13H13.4C13.4552 2.5 13.5 2.54477 13.5 2.6V3V9V9.4C13.5 9.45523 13.4552 9.5 13.4 9.5H13H3H2.6C2.54477 9.5 2.5 9.45523 2.5 9.4V9V3.6C2.5 3.54477 2.45523 3.5 2.4 3.5H0.0999999C0.0447714 3.5 0 3.45523 0 3.4V2.6C0 2.54477 0.0447715 2.5 0.1 2.5H2.4C2.45523 2.5 2.5 2.45523 2.5 2.4V0.1C2.5 0.0447715 2.54477 0 2.6 0H3.4ZM3.6 3.5C3.54477 3.5 3.5 3.54477 3.5 3.6V8.4C3.5 8.45523 3.54477 8.5 3.6 8.5H12.4C12.4552 8.5 12.5 8.45523 12.5 8.4V3.6C12.5 3.54477 12.4552 3.5 12.4 3.5H3.6Z" fill="white"/>
</svg>
