<svg width="11" height="10" viewBox="0 0 11 10" fill="none" xmlns="http://www.w3.org/2000/svg">
<path fill-rule="evenodd" clip-rule="evenodd" d="M5 2.2071V8.5H1.5V7C1.5 6.72385 1.27614 6.5 1 6.5C0.723858 6.5 0.5 6.72385 0.5 7V9C0.5 9.27614 0.723858 9.5 1 9.5H10C10.2761 9.5 10.5 9.27614 10.5 9V7C10.5 6.72385 10.2761 6.5 10 6.5C9.72386 6.5 9.5 6.72385 9.5 7V8.5H6V2.2071L7.64645 3.85355C7.84171 4.04881 8.15829 4.04881 8.35355 3.85355C8.54882 3.65829 8.54882 3.3417 8.35355 3.14644L5.85355 0.646443C5.65829 0.45118 5.34171 0.45118 5.14645 0.646443L2.64645 3.14644C2.45118 3.3417 2.45118 3.65829 2.64645 3.85355C2.84171 4.04881 3.15829 4.04881 3.35355 3.85355L5 2.2071Z" fill="white"/>
</svg>
